<svg id="svg" version="1.1" xmlns="http://www.w3.org/2000/svg" xmlns:xlink="http://www.w3.org/1999/xlink" width="400" height="400" viewBox="0, 0, 400,400"><g id="svgg"><path id="path0" d="M208.000 120.405 C 208.000 121.249,208.746 122.816,209.358 123.260 C 209.555 123.402,209.606 123.807,209.471 124.160 C 209.309 124.581,209.442 124.800,209.859 124.800 C 210.296 124.800,210.428 125.048,210.284 125.600 C 210.164 126.061,210.272 126.400,210.540 126.400 C 211.127 126.400,212.144 128.643,211.806 129.191 C 211.667 129.416,211.833 129.600,212.176 129.600 C 212.554 129.600,212.804 129.955,212.809 130.500 C 212.814 130.995,213.170 131.850,213.600 132.400 C 214.030 132.950,214.386 133.625,214.391 133.900 C 214.396 134.175,214.580 134.400,214.800 134.400 C 215.020 134.400,215.200 134.760,215.200 135.200 C 215.200 135.640,215.336 136.000,215.502 136.000 C 215.970 136.000,216.891 138.330,216.606 138.791 C 216.467 139.016,216.633 139.200,216.976 139.200 C 217.343 139.200,217.600 139.546,217.600 140.038 C 217.600 140.499,217.923 141.354,218.318 141.938 C 218.713 142.522,219.475 143.900,220.012 145.000 C 220.550 146.100,221.082 147.090,221.195 147.200 C 221.670 147.663,222.400 149.234,222.400 149.795 C 222.400 150.128,222.580 150.400,222.800 150.400 C 223.020 150.400,223.200 150.777,223.200 151.238 C 223.200 151.699,223.521 152.554,223.914 153.138 C 224.307 153.722,224.886 154.740,225.200 155.400 C 225.514 156.060,226.104 157.094,226.511 157.697 C 226.918 158.301,227.131 158.988,226.985 159.224 C 226.839 159.460,227.036 159.884,227.422 160.167 C 227.877 160.499,228.045 160.984,227.900 161.540 C 227.758 162.083,227.860 162.400,228.178 162.400 C 228.454 162.400,229.289 163.615,230.032 165.100 C 230.776 166.585,231.549 167.917,231.750 168.060 C 231.952 168.202,232.012 168.593,231.884 168.927 C 231.754 169.263,231.907 169.632,232.225 169.754 C 232.541 169.876,232.800 170.431,232.800 170.987 C 232.800 171.544,232.953 172.000,233.140 172.000 C 233.327 172.000,234.089 173.215,234.832 174.700 C 235.576 176.185,236.346 177.515,236.543 177.655 C 236.741 177.796,236.771 178.123,236.611 178.382 C 236.448 178.645,236.630 179.080,237.022 179.367 C 237.477 179.699,237.645 180.184,237.500 180.740 C 237.356 181.292,237.460 181.600,237.791 181.600 C 238.075 181.600,238.407 181.915,238.529 182.300 C 238.651 182.685,239.032 183.495,239.375 184.100 C 239.719 184.705,240.281 185.695,240.625 186.300 C 240.968 186.905,241.349 187.715,241.471 188.100 C 241.593 188.485,241.873 188.800,242.093 188.800 C 242.313 188.800,242.402 189.148,242.291 189.574 C 242.174 190.022,242.323 190.438,242.644 190.562 C 242.950 190.679,243.200 191.032,243.200 191.347 C 243.200 191.661,243.766 192.972,244.459 194.259 C 245.151 195.547,245.916 197.004,246.159 197.497 C 246.401 197.990,246.735 198.395,246.900 198.397 C 247.065 198.399,247.200 198.749,247.200 199.176 C 247.200 199.603,247.380 200.064,247.600 200.200 C 247.820 200.336,248.000 200.814,248.000 201.262 C 248.000 201.710,248.321 202.554,248.714 203.138 C 249.107 203.722,249.686 204.740,250.000 205.400 C 250.314 206.060,250.893 207.078,251.286 207.662 C 251.679 208.246,252.000 209.011,252.000 209.362 C 252.000 209.713,252.180 210.000,252.400 210.000 C 252.620 210.000,252.800 210.435,252.800 210.967 C 252.800 211.498,252.935 211.993,253.100 212.067 C 253.456 212.225,255.200 215.518,255.200 216.033 C 255.200 216.230,255.515 216.759,255.900 217.208 C 256.543 217.960,256.616 219.857,256.800 240.713 L 257.000 263.400 280.400 263.400 L 303.800 263.400 303.904 242.100 C 303.979 226.523,303.886 220.800,303.557 220.800 C 303.309 220.800,303.198 220.453,303.309 220.026 C 303.426 219.578,303.277 219.162,302.956 219.038 C 302.650 218.921,302.400 218.564,302.400 218.246 C 302.400 217.927,301.770 216.481,301.000 215.033 C 300.230 213.585,298.970 211.215,298.200 209.767 C 297.430 208.319,296.800 206.789,296.800 206.367 C 296.800 205.945,296.620 205.600,296.400 205.600 C 296.180 205.600,296.000 205.240,296.000 204.800 C 296.000 204.360,295.841 204.000,295.647 204.000 C 295.452 204.000,295.193 203.685,295.071 203.300 C 294.949 202.915,294.588 202.150,294.269 201.600 C 292.907 199.254,291.929 196.838,292.179 196.435 C 292.326 196.196,292.265 196.000,292.042 196.000 C 291.820 196.000,291.323 195.325,290.940 194.500 C 290.556 193.675,290.140 192.910,290.015 192.800 C 289.390 192.247,287.945 188.813,288.179 188.435 C 288.328 188.193,288.171 188.000,287.824 188.000 C 287.481 188.000,287.200 187.755,287.200 187.456 C 287.200 186.799,284.724 181.855,284.300 181.667 C 284.135 181.593,284.000 181.188,284.000 180.767 C 284.000 180.345,283.799 180.000,283.553 180.000 C 283.308 180.000,283.198 179.652,283.309 179.226 C 283.426 178.778,283.277 178.362,282.956 178.238 C 282.650 178.121,282.400 177.755,282.400 177.425 C 282.400 177.095,282.030 176.165,281.577 175.360 C 281.125 174.554,280.849 173.649,280.965 173.348 C 281.080 173.046,280.937 172.800,280.645 172.800 C 280.058 172.800,276.791 166.605,276.797 165.500 C 276.799 165.115,276.620 164.800,276.400 164.800 C 276.180 164.800,276.000 164.440,276.000 164.000 C 276.000 163.560,275.850 163.200,275.668 163.200 C 275.485 163.200,275.147 162.795,274.917 162.300 C 274.686 161.805,273.914 160.140,273.199 158.600 C 270.619 153.037,270.195 152.198,269.900 152.067 C 269.735 151.993,269.600 151.588,269.600 151.167 C 269.600 150.745,269.465 150.399,269.300 150.397 C 268.941 150.393,268.000 148.456,268.000 147.720 C 268.000 147.434,267.820 147.200,267.600 147.200 C 267.380 147.200,267.200 146.955,267.200 146.656 C 267.200 145.999,264.724 141.055,264.300 140.867 C 264.135 140.793,264.000 140.388,264.000 139.967 C 264.000 139.545,263.820 139.200,263.600 139.200 C 263.380 139.200,263.200 138.928,263.200 138.595 C 263.200 138.262,263.043 137.677,262.850 137.295 C 262.658 136.913,262.092 135.790,261.593 134.800 C 261.095 133.810,259.994 131.674,259.148 130.054 C 258.302 128.434,257.696 126.968,257.802 126.796 C 257.909 126.624,257.706 126.373,257.352 126.237 C 256.917 126.070,256.770 125.667,256.899 124.995 C 257.009 124.418,256.902 123.999,256.645 123.999 C 256.400 123.998,255.750 123.008,255.200 121.800 L 254.200 119.603 231.100 119.601 C 208.214 119.600,208.000 119.607,208.000 120.405 M307.200 121.400 C 306.691 122.390,306.123 123.200,305.937 123.200 C 305.752 123.200,305.600 123.560,305.600 124.000 C 305.600 124.440,305.420 124.800,305.200 124.800 C 304.980 124.800,304.796 125.025,304.791 125.300 C 304.786 125.575,304.430 126.250,304.000 126.800 C 303.570 127.350,303.214 128.121,303.209 128.513 C 303.204 128.904,302.950 129.321,302.644 129.438 C 302.323 129.562,302.174 129.978,302.291 130.426 C 302.402 130.852,302.292 131.200,302.047 131.200 C 301.801 131.200,301.600 131.436,301.600 131.725 C 301.600 132.013,301.240 132.636,300.800 133.108 C 300.360 133.580,300.000 134.244,300.000 134.583 C 300.000 134.922,299.841 135.200,299.647 135.200 C 299.452 135.200,299.193 135.515,299.071 135.900 C 298.949 136.285,298.541 137.140,298.164 137.800 C 297.071 139.714,296.800 140.349,296.800 140.995 C 296.800 141.328,296.620 141.600,296.400 141.600 C 296.180 141.600,296.000 141.836,296.000 142.125 C 296.000 142.413,295.640 143.036,295.200 143.508 C 294.760 143.980,294.400 144.644,294.400 144.983 C 294.400 145.322,294.220 145.600,294.000 145.600 C 293.780 145.600,293.600 145.960,293.600 146.400 C 293.600 146.840,293.420 147.200,293.200 147.200 C 292.980 147.200,292.800 147.560,292.800 148.000 C 292.800 148.460,292.533 148.800,292.173 148.800 C 291.728 148.800,291.620 149.032,291.800 149.600 C 291.940 150.040,291.907 150.401,291.727 150.403 C 291.547 150.405,291.202 150.810,290.960 151.303 C 289.778 153.711,288.570 155.813,288.300 155.933 C 288.135 156.007,288.000 156.412,288.000 156.833 C 288.000 157.255,287.820 157.600,287.600 157.600 C 287.380 157.600,287.200 157.834,287.200 158.120 C 287.200 158.856,286.259 160.793,285.900 160.797 C 285.735 160.799,285.600 161.094,285.600 161.454 C 285.600 161.814,285.150 162.525,284.600 163.035 C 283.472 164.081,283.309 164.800,284.200 164.800 C 284.530 164.800,284.800 165.145,284.800 165.567 C 284.800 165.988,284.935 166.393,285.100 166.467 C 285.674 166.722,287.288 170.333,287.021 170.765 C 286.872 171.007,287.029 171.200,287.376 171.200 C 287.719 171.200,288.000 171.434,288.000 171.720 C 288.000 172.456,288.941 174.393,289.300 174.397 C 289.465 174.399,289.600 174.634,289.600 174.920 C 289.600 175.656,290.541 177.593,290.900 177.597 C 291.065 177.599,291.200 177.960,291.200 178.400 C 291.200 178.840,291.392 179.200,291.627 179.200 C 291.872 179.200,291.946 179.541,291.800 180.000 C 291.620 180.568,291.728 180.800,292.173 180.800 C 292.543 180.800,292.800 181.144,292.800 181.638 C 292.800 182.099,293.123 182.954,293.518 183.538 C 293.913 184.122,294.675 185.500,295.212 186.600 C 295.750 187.700,296.353 188.717,296.553 188.860 C 296.753 189.002,296.812 189.393,296.684 189.727 C 296.554 190.063,296.707 190.432,297.025 190.554 C 297.341 190.676,297.604 191.096,297.609 191.487 C 297.614 191.879,297.970 192.650,298.400 193.200 C 298.830 193.750,299.190 194.470,299.200 194.800 C 299.210 195.130,299.570 195.850,300.000 196.400 C 300.430 196.950,300.786 197.625,300.791 197.900 C 300.796 198.175,300.980 198.400,301.200 198.400 C 301.420 198.400,301.600 198.653,301.600 198.962 C 301.600 199.271,301.943 200.216,302.361 201.062 C 302.780 201.908,303.591 203.590,304.163 204.800 C 305.915 208.504,306.887 209.972,307.602 209.994 C 307.714 209.997,308.059 209.415,308.370 208.700 C 308.681 207.985,309.041 207.310,309.170 207.200 C 309.616 206.820,312.000 201.886,312.000 201.344 C 312.000 201.045,312.180 200.800,312.400 200.800 C 312.620 200.800,312.800 200.528,312.800 200.195 C 312.800 199.622,313.546 198.033,314.018 197.600 C 314.138 197.490,314.918 196.005,315.753 194.300 C 316.587 192.595,317.417 191.200,317.597 191.200 C 317.778 191.200,317.831 190.840,317.716 190.400 C 317.599 189.953,317.704 189.600,317.953 189.600 C 318.199 189.600,318.400 189.240,318.400 188.800 C 318.400 188.360,318.580 188.000,318.800 188.000 C 319.020 188.000,319.200 187.730,319.200 187.400 C 319.200 187.070,319.335 186.799,319.500 186.799 C 319.665 186.798,320.250 185.808,320.800 184.600 C 321.350 183.392,321.935 182.402,322.100 182.401 C 322.265 182.401,322.400 182.045,322.400 181.611 C 322.400 181.177,322.858 180.052,323.418 179.111 C 323.977 178.170,324.538 177.085,324.664 176.700 C 324.790 176.315,325.052 176.000,325.247 176.000 C 325.441 176.000,325.600 175.640,325.600 175.200 C 325.600 174.760,325.780 174.400,326.000 174.400 C 326.220 174.400,326.400 174.040,326.400 173.600 C 326.400 173.160,326.580 172.800,326.800 172.800 C 327.020 172.800,327.200 172.528,327.200 172.195 C 327.200 171.549,327.471 170.914,328.564 169.000 C 328.941 168.340,329.349 167.485,329.471 167.100 C 329.593 166.715,329.852 166.400,330.047 166.400 C 330.241 166.400,330.400 166.040,330.400 165.600 C 330.400 165.160,330.580 164.800,330.800 164.800 C 331.020 164.800,331.200 164.440,331.200 164.000 C 331.200 163.560,331.367 163.200,331.572 163.200 C 331.777 163.200,332.006 162.795,332.082 162.300 C 332.157 161.805,332.453 161.449,332.739 161.510 C 333.033 161.572,333.140 161.426,332.985 161.175 C 332.753 160.801,334.147 157.430,334.795 156.800 C 335.254 156.353,336.800 153.085,336.800 152.562 C 336.800 152.253,336.980 152.000,337.200 152.000 C 337.420 152.000,337.600 151.640,337.600 151.200 C 337.600 150.760,337.780 150.400,338.000 150.400 C 338.220 150.400,338.400 150.055,338.400 149.633 C 338.400 149.212,338.535 148.807,338.700 148.733 C 338.865 148.660,339.442 147.700,339.982 146.600 C 340.522 145.500,341.287 144.122,341.682 143.538 C 342.077 142.954,342.400 142.184,342.400 141.826 C 342.400 141.468,342.659 141.076,342.975 140.954 C 343.293 140.832,343.446 140.463,343.316 140.127 C 343.188 139.793,343.245 139.402,343.442 139.260 C 343.915 138.917,344.955 137.110,346.239 134.400 C 346.813 133.190,347.828 131.120,348.495 129.800 C 349.163 128.480,349.909 126.996,350.154 126.503 C 350.399 126.010,350.735 125.605,350.900 125.603 C 351.065 125.601,351.200 125.240,351.200 124.800 C 351.200 124.360,351.380 124.000,351.600 124.000 C 351.820 124.000,352.000 123.676,352.000 123.280 C 352.000 122.884,352.157 122.389,352.348 122.180 C 352.540 121.971,352.813 121.305,352.956 120.700 L 353.215 119.600 330.671 119.600 L 308.126 119.600 307.200 121.400 " stroke="none" fill="#050505" fill-rule="evenodd"></path><path id="path1" d="M62.873 120.600 C 62.228 122.016,62.207 261.885,62.852 262.662 C 63.484 263.424,107.494 263.461,108.523 262.700 C 109.595 261.907,109.579 122.070,108.506 120.596 L 107.800 119.625 85.564 119.613 L 63.328 119.600 62.873 120.600 M118.118 121.100 C 117.483 124.094,117.729 147.585,118.400 148.001 C 118.744 148.214,125.937 148.370,135.256 148.367 C 144.196 148.365,151.981 148.480,152.556 148.625 L 153.600 148.887 153.600 170.801 C 153.600 190.018,153.525 192.743,152.993 192.947 C 152.660 193.075,144.790 193.173,135.506 193.165 C 119.953 193.151,118.586 193.204,118.120 193.842 C 117.322 194.933,117.578 219.063,118.400 220.309 C 118.989 221.200,119.123 221.215,125.591 221.109 L 132.182 221.000 132.575 219.881 C 132.853 219.088,132.827 218.535,132.484 217.986 C 131.819 216.921,131.864 216.800,132.920 216.800 C 133.426 216.800,134.022 216.618,134.245 216.395 C 134.467 216.173,135.898 215.902,137.425 215.794 C 138.951 215.687,141.280 215.415,142.600 215.191 C 143.920 214.967,146.440 214.632,148.200 214.445 C 149.960 214.258,152.681 213.815,154.246 213.459 C 157.177 212.793,161.998 212.504,162.722 212.952 C 162.947 213.091,163.203 212.992,163.290 212.731 C 163.447 212.260,167.226 211.767,173.886 211.348 C 176.801 211.165,177.269 211.233,178.043 211.954 C 179.102 212.941,179.687 212.696,181.859 210.353 C 182.706 209.438,183.925 208.220,184.567 207.645 C 185.209 207.070,186.019 206.245,186.367 205.811 C 186.969 205.061,189.777 202.252,190.777 201.400 C 191.035 201.180,193.306 198.866,195.823 196.257 L 200.400 191.513 200.436 172.457 C 200.475 151.076,200.451 149.620,200.035 148.877 C 199.760 148.385,181.242 129.691,178.600 127.238 C 177.940 126.625,176.935 125.601,176.367 124.962 C 175.799 124.323,174.308 122.855,173.055 121.700 L 170.776 119.600 144.606 119.600 L 118.436 119.600 118.118 121.100 M120.462 122.498 C 120.004 122.956,119.083 122.513,119.406 121.990 C 119.527 121.795,119.902 121.741,120.240 121.871 C 120.641 122.024,120.718 122.242,120.462 122.498 M174.808 125.790 C 174.530 126.126,174.116 126.400,173.889 126.400 C 173.662 126.400,173.803 126.039,174.202 125.598 C 175.029 124.683,175.581 124.859,174.808 125.790 M169.422 126.835 C 169.834 127.502,168.907 128.267,168.355 127.715 C 167.893 127.253,168.182 126.400,168.800 126.400 C 168.994 126.400,169.274 126.596,169.422 126.835 M180.800 131.096 C 180.800 131.373,180.620 131.600,180.400 131.600 C 180.180 131.600,180.000 131.330,180.000 131.000 C 180.000 130.670,179.820 130.400,179.600 130.400 C 179.380 130.400,179.200 130.218,179.200 129.997 C 179.200 129.757,179.526 129.797,180.000 130.093 C 180.440 130.368,180.800 130.819,180.800 131.096 M189.600 139.800 C 189.600 140.130,189.420 140.400,189.200 140.400 C 188.980 140.400,188.800 140.130,188.800 139.800 C 188.800 139.470,188.980 139.200,189.200 139.200 C 189.420 139.200,189.600 139.470,189.600 139.800 M120.000 144.024 C 120.000 144.451,119.820 144.800,119.600 144.800 C 119.380 144.800,119.200 144.339,119.200 143.776 C 119.200 143.196,119.373 142.860,119.600 143.000 C 119.820 143.136,120.000 143.597,120.000 144.024 M193.200 193.000 C 193.200 193.330,192.930 193.600,192.600 193.600 C 191.559 193.600,191.896 192.812,193.100 192.432 C 193.155 192.414,193.200 192.670,193.200 193.000 M194.676 194.219 C 195.017 194.560,195.192 194.942,195.065 195.068 C 194.663 195.471,193.600 194.850,193.600 194.213 C 193.600 193.436,193.895 193.438,194.676 194.219 M125.925 197.175 C 126.025 197.475,125.875 197.625,125.575 197.525 C 125.286 197.429,124.971 197.114,124.875 196.825 C 124.775 196.525,124.925 196.375,125.225 196.475 C 125.514 196.571,125.829 196.886,125.925 197.175 M120.574 198.758 C 120.696 198.955,120.526 199.219,120.198 199.346 C 119.835 199.485,119.600 199.344,119.600 198.987 C 119.600 198.340,120.225 198.193,120.574 198.758 M188.800 199.843 C 188.800 200.674,188.124 200.516,187.892 199.630 C 187.751 199.090,187.856 198.923,188.245 199.073 C 188.550 199.190,188.800 199.536,188.800 199.843 M187.200 201.000 C 187.200 201.330,187.020 201.600,186.800 201.600 C 186.580 201.600,186.400 201.330,186.400 201.000 C 186.400 200.670,186.580 200.400,186.800 200.400 C 187.020 200.400,187.200 200.670,187.200 201.000 M180.588 204.780 C 180.717 204.989,180.444 205.363,179.981 205.610 C 179.209 206.023,179.176 205.992,179.584 205.230 C 180.080 204.303,180.246 204.228,180.588 204.780 M181.029 209.829 C 180.662 210.195,180.249 210.382,180.110 210.243 C 179.972 210.105,180.205 209.738,180.629 209.429 C 181.625 208.700,181.891 208.966,181.029 209.829 M155.816 210.027 C 155.961 210.261,156.009 210.524,155.923 210.611 C 155.648 210.885,154.000 210.322,154.000 209.953 C 154.000 209.453,155.499 209.513,155.816 210.027 M129.400 214.000 C 129.536 214.220,129.277 214.400,128.824 214.400 C 128.371 214.400,128.000 214.220,128.000 214.000 C 128.000 213.780,128.259 213.600,128.576 213.600 C 128.893 213.600,129.264 213.780,129.400 214.000 M175.390 218.042 L 172.980 220.461 154.341 220.416 L 135.701 220.371 135.476 221.232 C 135.352 221.705,135.401 222.386,135.585 222.746 C 135.906 223.374,136.486 224.648,138.432 229.000 C 138.924 230.100,139.513 231.360,139.741 231.800 C 139.969 232.240,140.840 233.915,141.678 235.522 C 142.515 237.128,143.200 238.644,143.200 238.890 C 143.200 239.136,143.430 239.621,143.712 239.969 C 144.167 240.530,145.732 243.803,148.127 249.200 C 148.944 251.040,149.296 251.791,150.000 253.200 C 150.220 253.640,150.580 254.360,150.800 254.800 C 151.020 255.240,151.369 255.915,151.574 256.300 C 151.780 256.685,152.426 258.080,153.009 259.400 C 153.592 260.720,154.208 262.070,154.378 262.400 C 154.694 263.014,204.400 263.574,204.400 262.963 C 204.400 262.561,202.325 257.924,202.001 257.600 C 201.890 257.490,201.558 256.970,201.262 256.445 C 200.967 255.920,200.382 254.885,199.962 254.145 C 199.543 253.405,198.823 252.125,198.362 251.300 C 197.902 250.475,197.362 249.629,197.162 249.420 C 196.963 249.211,196.800 248.789,196.800 248.482 C 196.800 248.175,196.464 247.446,196.053 246.862 C 194.929 245.264,192.000 239.603,192.000 239.028 C 192.000 238.751,191.640 238.198,191.200 237.800 C 190.760 237.402,190.400 236.840,190.400 236.552 C 190.400 236.263,189.692 234.932,188.828 233.594 C 187.963 232.256,187.141 230.642,187.002 230.008 C 186.863 229.374,186.490 228.641,186.174 228.379 C 185.858 228.117,185.600 227.727,185.600 227.513 C 185.600 227.299,185.262 226.646,184.849 226.062 C 184.436 225.478,183.132 223.110,181.953 220.800 C 178.826 214.676,178.768 214.652,175.390 218.042 M173.200 222.000 C 173.200 222.220,172.829 222.400,172.376 222.400 C 171.923 222.400,171.664 222.220,171.800 222.000 C 171.936 221.780,172.307 221.600,172.624 221.600 C 172.941 221.600,173.200 221.780,173.200 222.000 M180.918 222.700 C 181.157 223.942,181.044 224.198,180.427 223.816 C 179.914 223.500,179.851 221.600,180.353 221.600 C 180.548 221.600,180.802 222.095,180.918 222.700 M140.729 224.133 C 140.917 225.098,140.134 224.955,139.878 223.977 C 139.741 223.454,139.833 223.211,140.131 223.310 C 140.389 223.396,140.658 223.766,140.729 224.133 M139.200 224.567 C 139.200 224.878,139.401 225.200,139.646 225.282 C 139.891 225.364,140.000 225.784,139.888 226.215 C 139.697 226.951,139.667 226.944,139.396 226.100 C 139.237 225.605,138.948 225.200,138.753 225.200 C 138.559 225.200,138.400 224.930,138.400 224.600 C 138.400 224.270,138.580 224.000,138.800 224.000 C 139.020 224.000,139.200 224.255,139.200 224.567 M182.557 226.633 C 182.707 227.023,182.618 227.206,182.325 227.108 C 181.727 226.909,181.398 226.000,181.924 226.000 C 182.139 226.000,182.424 226.285,182.557 226.633 M175.920 228.480 C 176.714 229.274,176.465 230.000,175.400 230.000 C 174.697 230.000,174.400 229.782,174.400 229.267 C 174.400 228.014,175.095 227.655,175.920 228.480 M184.800 228.600 C 184.800 228.930,184.639 229.200,184.443 229.200 C 184.246 229.200,183.982 228.930,183.855 228.600 C 183.715 228.235,183.855 228.000,184.213 228.000 C 184.536 228.000,184.800 228.270,184.800 228.600 M196.800 253.833 C 196.800 254.182,196.586 254.395,196.325 254.308 C 195.583 254.061,195.460 253.200,196.167 253.200 C 196.515 253.200,196.800 253.485,196.800 253.833 " stroke="none" fill="#fb7c04" fill-rule="evenodd"></path><path id="path2" d="M206.800 120.200 C 206.800 120.530,206.980 120.800,207.200 120.800 C 207.420 120.800,207.600 121.250,207.600 121.800 C 207.600 122.350,207.780 122.800,208.000 122.800 C 208.220 122.800,208.400 123.160,208.400 123.600 C 208.400 124.044,208.667 124.400,209.000 124.400 C 209.330 124.400,209.600 124.130,209.600 123.800 C 209.600 123.470,209.465 123.199,209.300 123.197 C 208.894 123.193,208.000 121.214,208.000 120.320 C 208.000 119.924,207.730 119.600,207.400 119.600 C 207.070 119.600,206.800 119.870,206.800 120.200 M254.400 119.859 C 254.400 120.655,256.254 123.987,256.700 123.993 C 257.472 124.004,257.291 123.042,256.400 122.400 C 255.960 122.083,255.600 121.580,255.600 121.283 C 255.600 120.986,255.330 120.473,255.000 120.143 C 254.670 119.813,254.400 119.685,254.400 119.859 M306.800 120.400 C 306.800 120.840,306.620 121.200,306.400 121.200 C 306.180 121.200,306.000 121.478,306.000 121.817 C 306.000 122.156,305.640 122.820,305.200 123.292 C 304.760 123.764,304.400 124.387,304.400 124.675 C 304.400 124.964,304.220 125.200,304.000 125.200 C 303.780 125.200,303.600 125.560,303.600 126.000 C 303.600 126.440,303.420 126.800,303.200 126.800 C 302.980 126.800,302.800 127.160,302.800 127.600 C 302.800 128.040,302.620 128.400,302.400 128.400 C 302.180 128.400,302.000 128.685,302.000 129.033 C 302.000 129.906,302.966 129.513,303.147 128.567 C 303.227 128.145,303.632 127.322,304.047 126.738 C 304.461 126.154,304.800 125.479,304.800 125.238 C 304.800 124.997,304.980 124.800,305.200 124.800 C 305.420 124.800,305.600 124.440,305.600 124.000 C 305.600 123.560,305.747 123.200,305.926 123.200 C 306.205 123.200,308.000 120.225,308.000 119.762 C 308.000 119.673,307.730 119.600,307.400 119.600 C 307.067 119.600,306.800 119.956,306.800 120.400 M352.938 120.808 C 352.805 121.473,352.540 122.114,352.348 122.232 C 352.157 122.350,352.000 122.797,352.000 123.224 C 352.000 123.651,351.820 124.000,351.600 124.000 C 351.380 124.000,351.200 124.360,351.200 124.800 C 351.200 125.240,351.065 125.601,350.900 125.603 C 350.735 125.605,350.399 126.010,350.154 126.503 C 349.909 126.996,349.144 128.525,348.454 129.900 C 347.764 131.275,346.636 133.525,345.946 134.900 C 345.256 136.275,344.491 137.804,344.246 138.297 C 344.001 138.790,343.665 139.195,343.500 139.197 C 343.335 139.199,343.200 139.470,343.200 139.800 C 343.200 140.130,343.470 140.400,343.800 140.400 C 344.133 140.400,344.400 140.044,344.400 139.600 C 344.400 139.160,344.580 138.800,344.800 138.800 C 345.020 138.800,345.200 138.440,345.200 138.000 C 345.200 137.560,345.380 137.200,345.600 137.200 C 345.820 137.200,346.000 136.840,346.000 136.400 C 346.000 135.960,346.180 135.600,346.400 135.600 C 346.620 135.600,346.800 135.240,346.800 134.800 C 346.800 134.360,346.980 134.000,347.200 134.000 C 347.420 134.000,347.600 133.640,347.600 133.200 C 347.600 132.760,347.780 132.400,348.000 132.400 C 348.220 132.400,348.400 132.040,348.400 131.600 C 348.400 131.160,348.580 130.800,348.800 130.800 C 349.020 130.800,349.200 130.440,349.200 130.000 C 349.200 129.560,349.380 129.200,349.600 129.200 C 349.820 129.200,350.000 128.840,350.000 128.400 C 350.000 127.960,350.180 127.600,350.400 127.600 C 350.620 127.600,350.800 127.240,350.800 126.800 C 350.800 126.360,350.980 126.000,351.200 126.000 C 351.420 126.000,351.600 125.730,351.600 125.400 C 351.600 125.070,351.780 124.800,352.000 124.800 C 352.220 124.800,352.400 124.440,352.400 124.000 C 352.400 123.560,352.580 123.200,352.800 123.200 C 353.020 123.200,353.200 122.750,353.200 122.200 C 353.200 121.650,353.380 121.200,353.600 121.200 C 353.820 121.200,354.000 120.840,354.000 120.400 C 354.000 119.155,353.208 119.459,352.938 120.808 M256.864 125.204 C 256.939 125.717,257.225 126.211,257.500 126.302 C 258.206 126.535,258.121 125.664,257.364 124.907 C 256.782 124.325,256.739 124.350,256.864 125.204 M209.200 125.400 C 209.200 125.730,209.470 126.000,209.800 126.000 C 210.130 126.000,210.400 125.730,210.400 125.400 C 210.400 125.070,210.130 124.800,209.800 124.800 C 209.470 124.800,209.200 125.070,209.200 125.400 M210.000 126.818 C 210.000 127.048,210.450 127.686,211.000 128.236 C 212.105 129.342,212.257 129.113,211.500 127.483 C 211.012 126.432,210.000 125.984,210.000 126.818 M257.600 126.945 C 257.600 127.024,258.294 128.419,259.143 130.045 C 259.992 131.670,261.095 133.810,261.593 134.800 C 262.092 135.790,262.658 136.913,262.850 137.295 C 263.043 137.677,263.200 138.262,263.200 138.595 C 263.200 138.928,263.380 139.200,263.600 139.200 C 263.820 139.200,264.000 139.545,264.000 139.967 C 264.000 140.388,264.135 140.793,264.300 140.867 C 264.724 141.055,267.200 145.999,267.200 146.656 C 267.200 146.955,267.380 147.200,267.600 147.200 C 267.820 147.200,268.000 147.434,268.000 147.720 C 268.000 148.456,268.941 150.393,269.300 150.397 C 269.465 150.399,269.600 150.745,269.600 151.167 C 269.600 151.588,269.735 151.993,269.900 152.067 C 270.195 152.198,270.619 153.037,273.199 158.600 C 273.914 160.140,274.686 161.805,274.917 162.300 C 275.147 162.795,275.485 163.200,275.668 163.200 C 275.850 163.200,276.000 163.560,276.000 164.000 C 276.000 164.440,276.180 164.800,276.400 164.800 C 276.620 164.800,276.799 165.115,276.797 165.500 C 276.791 166.781,280.072 172.802,280.758 172.768 C 281.172 172.748,281.222 172.665,280.900 172.535 C 280.625 172.424,280.400 171.988,280.400 171.567 C 280.400 171.145,280.220 170.800,280.000 170.800 C 279.780 170.800,279.600 170.440,279.600 170.000 C 279.600 169.560,279.420 169.200,279.200 169.200 C 278.980 169.200,278.800 168.840,278.800 168.400 C 278.800 167.960,278.620 167.600,278.400 167.600 C 278.180 167.600,278.000 167.240,278.000 166.800 C 278.000 166.360,277.820 166.000,277.600 166.000 C 277.380 166.000,277.200 165.550,277.200 165.000 C 277.200 164.450,277.020 164.000,276.800 164.000 C 276.580 164.000,276.400 163.590,276.400 163.088 C 276.400 162.587,276.040 161.917,275.600 161.600 C 275.160 161.283,274.800 160.703,274.800 160.312 C 274.800 159.920,274.620 159.600,274.400 159.600 C 274.180 159.600,274.000 159.240,274.000 158.800 C 274.000 158.360,273.820 158.000,273.600 158.000 C 273.380 158.000,273.200 157.550,273.200 157.000 C 273.200 156.450,273.020 156.000,272.800 156.000 C 272.580 156.000,272.400 155.550,272.400 155.000 C 272.400 154.450,272.220 154.000,272.000 154.000 C 271.780 154.000,271.600 153.640,271.600 153.200 C 271.600 152.760,271.420 152.400,271.200 152.400 C 270.980 152.400,270.800 152.029,270.800 151.576 C 270.800 151.123,270.620 150.864,270.400 151.000 C 270.180 151.136,270.000 150.887,270.000 150.447 C 270.000 150.007,269.820 149.536,269.600 149.400 C 269.380 149.264,269.200 148.803,269.200 148.376 C 269.200 147.949,269.020 147.600,268.800 147.600 C 268.580 147.600,268.400 147.330,268.400 147.000 C 268.400 146.670,268.220 146.400,268.000 146.400 C 267.780 146.400,267.600 145.950,267.600 145.400 C 267.600 144.850,267.420 144.400,267.200 144.400 C 266.980 144.400,266.800 144.040,266.800 143.600 C 266.800 143.160,266.620 142.800,266.400 142.800 C 266.180 142.800,266.000 142.440,266.000 142.000 C 266.000 141.560,265.820 141.200,265.600 141.200 C 265.380 141.200,265.200 140.840,265.200 140.400 C 265.200 139.960,265.020 139.600,264.800 139.600 C 264.580 139.600,264.400 139.240,264.400 138.800 C 264.400 138.360,264.220 138.000,264.000 138.000 C 263.780 138.000,263.600 137.640,263.600 137.200 C 263.600 136.760,263.420 136.400,263.200 136.400 C 262.980 136.400,262.800 136.040,262.800 135.600 C 262.800 135.160,262.620 134.800,262.400 134.800 C 262.180 134.800,262.000 134.339,262.000 133.776 C 262.000 133.196,261.827 132.860,261.600 133.000 C 261.380 133.136,261.200 132.877,261.200 132.424 C 261.200 131.971,261.020 131.600,260.800 131.600 C 260.580 131.600,260.400 131.240,260.400 130.800 C 260.400 130.360,260.220 130.000,260.000 130.000 C 259.780 130.000,259.600 129.640,259.600 129.200 C 259.600 128.760,259.420 128.400,259.200 128.400 C 258.980 128.400,258.800 128.040,258.800 127.600 C 258.800 127.156,258.533 126.800,258.200 126.800 C 257.870 126.800,257.600 126.865,257.600 126.945 M211.600 130.000 C 211.600 130.220,211.780 130.400,212.000 130.400 C 212.220 130.400,212.400 130.850,212.400 131.400 C 212.400 131.950,212.580 132.400,212.800 132.400 C 213.020 132.400,213.200 132.760,213.200 133.200 C 213.200 133.640,213.380 134.000,213.600 134.000 C 213.820 134.000,214.000 134.360,214.000 134.800 C 214.000 135.240,214.180 135.600,214.400 135.600 C 214.620 135.600,214.800 135.878,214.800 136.218 C 214.800 136.558,215.250 137.286,215.800 137.836 C 216.350 138.386,216.800 138.684,216.800 138.498 C 216.800 137.904,215.811 136.006,215.500 136.003 C 215.335 136.001,215.200 135.640,215.200 135.200 C 215.200 134.760,215.020 134.400,214.800 134.400 C 214.580 134.400,214.396 134.175,214.391 133.900 C 214.386 133.625,214.030 132.950,213.600 132.400 C 213.170 131.850,212.814 130.995,212.809 130.500 C 212.804 129.971,212.553 129.600,212.200 129.600 C 211.870 129.600,211.600 129.780,211.600 130.000 M301.200 130.617 C 301.200 130.956,300.840 131.620,300.400 132.092 C 299.960 132.564,299.600 133.187,299.600 133.475 C 299.600 133.764,299.420 134.000,299.200 134.000 C 298.980 134.000,298.800 134.360,298.800 134.800 C 298.800 135.240,298.620 135.600,298.400 135.600 C 298.180 135.600,298.000 135.960,298.000 136.400 C 298.000 136.840,297.820 137.200,297.600 137.200 C 297.380 137.200,297.200 137.560,297.200 138.000 C 297.200 138.440,297.020 138.800,296.800 138.800 C 296.580 138.800,296.400 139.160,296.400 139.600 C 296.400 140.040,296.220 140.400,296.000 140.400 C 295.780 140.400,295.600 140.678,295.600 141.017 C 295.600 141.356,295.240 142.020,294.800 142.492 C 294.360 142.964,294.000 143.587,294.000 143.875 C 294.000 144.164,293.820 144.400,293.600 144.400 C 293.380 144.400,293.200 144.760,293.200 145.200 C 293.200 145.640,293.020 146.000,292.800 146.000 C 292.580 146.000,292.400 146.360,292.400 146.800 C 292.400 147.240,292.220 147.600,292.000 147.600 C 291.780 147.600,291.600 147.870,291.600 148.200 C 291.600 148.530,291.870 148.800,292.200 148.800 C 292.533 148.800,292.800 148.444,292.800 148.000 C 292.800 147.560,292.980 147.200,293.200 147.200 C 293.420 147.200,293.600 146.840,293.600 146.400 C 293.600 145.960,293.780 145.600,294.000 145.600 C 294.220 145.600,294.400 145.322,294.400 144.983 C 294.400 144.644,294.760 143.980,295.200 143.508 C 295.640 143.036,296.000 142.413,296.000 142.125 C 296.000 141.836,296.180 141.600,296.400 141.600 C 296.620 141.600,296.800 141.328,296.800 140.995 C 296.800 140.349,297.071 139.714,298.164 137.800 C 298.541 137.140,298.949 136.285,299.071 135.900 C 299.193 135.515,299.452 135.200,299.647 135.200 C 299.841 135.200,300.000 134.922,300.000 134.583 C 300.000 134.244,300.360 133.580,300.800 133.108 C 301.240 132.636,301.600 132.013,301.600 131.725 C 301.600 131.436,301.780 131.200,302.000 131.200 C 302.220 131.200,302.400 130.930,302.400 130.600 C 302.400 130.270,302.130 130.000,301.800 130.000 C 301.470 130.000,301.200 130.278,301.200 130.617 M216.400 139.800 C 216.400 140.130,216.580 140.400,216.800 140.400 C 217.020 140.400,217.200 140.760,217.200 141.200 C 217.200 141.640,217.380 142.000,217.600 142.000 C 217.820 142.000,218.000 142.360,218.000 142.800 C 218.000 143.240,218.180 143.600,218.400 143.600 C 218.620 143.600,218.800 143.960,218.800 144.400 C 218.800 144.840,218.980 145.200,219.200 145.200 C 219.420 145.200,219.600 145.560,219.600 146.000 C 219.600 146.440,219.780 146.800,220.000 146.800 C 220.220 146.800,220.400 147.160,220.400 147.600 C 220.400 148.040,220.580 148.400,220.800 148.400 C 221.020 148.400,221.200 148.681,221.200 149.024 C 221.200 149.367,221.380 149.536,221.600 149.400 C 221.826 149.260,222.000 149.588,222.000 150.153 C 222.000 150.703,222.180 151.264,222.400 151.400 C 222.620 151.536,222.800 151.997,222.800 152.424 C 222.800 152.851,222.980 153.200,223.200 153.200 C 223.420 153.200,223.600 153.560,223.600 154.000 C 223.600 154.440,223.780 154.800,224.000 154.800 C 224.220 154.800,224.400 155.160,224.400 155.600 C 224.400 156.040,224.580 156.400,224.800 156.400 C 225.020 156.400,225.200 156.760,225.200 157.200 C 225.200 157.640,225.380 158.000,225.600 158.000 C 225.820 158.000,226.000 158.360,226.000 158.800 C 226.000 159.240,226.169 159.600,226.376 159.600 C 227.163 159.600,227.223 158.753,226.511 157.697 C 226.104 157.094,225.514 156.060,225.200 155.400 C 224.886 154.740,224.307 153.722,223.914 153.138 C 223.521 152.554,223.200 151.699,223.200 151.238 C 223.200 150.777,223.020 150.400,222.800 150.400 C 222.580 150.400,222.400 150.128,222.400 149.795 C 222.400 149.234,221.670 147.663,221.195 147.200 C 221.082 147.090,220.550 146.100,220.012 145.000 C 219.475 143.900,218.713 142.522,218.318 141.938 C 217.923 141.354,217.600 140.499,217.600 140.038 C 217.600 139.560,217.342 139.200,217.000 139.200 C 216.670 139.200,216.400 139.470,216.400 139.800 M342.558 141.500 C 342.439 141.885,342.085 142.650,341.772 143.200 C 341.459 143.750,340.714 145.190,340.116 146.400 C 339.519 147.610,338.888 148.660,338.715 148.733 C 338.542 148.807,338.400 149.212,338.400 149.633 C 338.400 150.055,338.220 150.400,338.000 150.400 C 337.780 150.400,337.600 150.760,337.600 151.200 C 337.600 151.640,337.420 152.000,337.200 152.000 C 336.980 152.000,336.800 152.253,336.800 152.562 C 336.800 153.082,335.258 156.345,334.798 156.800 C 334.342 157.250,332.000 162.152,332.000 162.656 C 332.000 162.955,331.820 163.200,331.600 163.200 C 331.380 163.200,331.200 163.560,331.200 164.000 C 331.200 164.440,331.020 164.800,330.800 164.800 C 330.580 164.800,330.400 165.160,330.400 165.600 C 330.400 166.040,330.241 166.400,330.047 166.400 C 329.852 166.400,329.593 166.715,329.471 167.100 C 329.349 167.485,328.941 168.340,328.564 169.000 C 327.471 170.914,327.200 171.549,327.200 172.195 C 327.200 172.528,327.020 172.800,326.800 172.800 C 326.580 172.800,326.400 173.160,326.400 173.600 C 326.400 174.040,326.220 174.400,326.000 174.400 C 325.780 174.400,325.600 174.760,325.600 175.200 C 325.600 175.640,325.441 176.000,325.247 176.000 C 325.052 176.000,324.790 176.315,324.664 176.700 C 324.538 177.085,323.977 178.170,323.418 179.111 C 322.858 180.052,322.400 181.177,322.400 181.611 C 322.400 182.045,322.265 182.401,322.100 182.401 C 321.935 182.402,321.350 183.392,320.800 184.600 C 320.250 185.808,319.665 186.798,319.500 186.799 C 319.335 186.799,319.200 187.070,319.200 187.400 C 319.200 187.730,319.020 188.000,318.800 188.000 C 318.580 188.000,318.400 188.360,318.400 188.800 C 318.400 189.240,318.220 189.600,318.000 189.600 C 317.780 189.600,317.600 189.885,317.600 190.233 C 317.600 191.174,318.579 190.679,318.729 189.663 C 318.799 189.182,319.024 188.891,319.229 189.018 C 319.433 189.144,319.600 188.877,319.600 188.424 C 319.600 187.971,319.780 187.600,320.000 187.600 C 320.220 187.600,320.400 187.240,320.400 186.800 C 320.400 186.360,320.580 186.000,320.800 186.000 C 321.020 186.000,321.200 185.722,321.200 185.383 C 321.200 185.044,321.560 184.380,322.000 183.908 C 322.440 183.436,322.800 182.633,322.800 182.125 C 322.800 181.616,322.980 181.200,323.200 181.200 C 323.420 181.200,323.600 180.840,323.600 180.400 C 323.600 179.960,323.780 179.600,324.000 179.600 C 324.220 179.600,324.400 179.322,324.400 178.983 C 324.400 178.644,324.760 177.980,325.200 177.508 C 325.640 177.036,326.000 176.323,326.000 175.925 C 326.000 175.526,326.180 175.200,326.400 175.200 C 326.620 175.200,326.800 174.829,326.800 174.376 C 326.800 173.923,326.943 173.641,327.117 173.749 C 327.291 173.856,327.463 173.555,327.499 173.078 C 327.535 172.602,327.752 172.149,327.982 172.073 C 328.212 171.996,328.400 171.498,328.400 170.967 C 328.400 170.435,328.580 170.000,328.800 170.000 C 329.020 170.000,329.200 169.680,329.200 169.288 C 329.200 168.897,329.560 168.317,330.000 168.000 C 330.440 167.683,330.800 167.229,330.800 166.991 C 330.800 166.325,331.763 164.407,332.100 164.403 C 332.265 164.401,332.400 164.040,332.400 163.600 C 332.400 163.160,332.601 162.800,332.847 162.800 C 333.098 162.800,333.201 162.447,333.082 161.993 C 332.966 161.549,333.125 160.932,333.436 160.622 C 333.746 160.311,334.000 159.814,334.000 159.517 C 334.000 159.220,334.360 158.717,334.800 158.400 C 335.240 158.083,335.600 157.503,335.600 157.112 C 335.600 156.720,335.780 156.400,336.000 156.400 C 336.220 156.400,336.400 156.040,336.400 155.600 C 336.400 155.160,336.580 154.800,336.800 154.800 C 337.020 154.800,337.200 154.440,337.200 154.000 C 337.200 153.560,337.380 153.200,337.600 153.200 C 337.820 153.200,338.000 152.750,338.000 152.200 C 338.000 151.650,338.180 151.200,338.400 151.200 C 338.620 151.200,338.800 150.829,338.800 150.376 C 338.800 149.856,338.970 149.658,339.262 149.838 C 339.536 150.007,339.615 149.949,339.458 149.694 C 339.312 149.458,339.464 148.993,339.796 148.661 C 340.128 148.329,340.400 147.774,340.400 147.429 C 340.400 147.083,340.580 146.800,340.800 146.800 C 341.020 146.800,341.200 146.440,341.200 146.000 C 341.200 145.560,341.380 145.200,341.600 145.200 C 341.820 145.200,342.000 144.840,342.000 144.400 C 342.000 143.960,342.180 143.600,342.400 143.600 C 342.620 143.600,342.800 143.240,342.800 142.800 C 342.800 142.360,342.980 142.000,343.200 142.000 C 343.420 142.000,343.600 141.730,343.600 141.400 C 343.600 140.570,342.823 140.645,342.558 141.500 M290.800 150.000 C 290.800 150.440,290.620 150.800,290.400 150.800 C 290.180 150.800,290.000 151.078,290.000 151.417 C 290.000 151.756,289.640 152.420,289.200 152.892 C 288.760 153.364,288.400 153.987,288.400 154.275 C 288.400 154.564,288.220 154.800,288.000 154.800 C 287.780 154.800,287.600 155.160,287.600 155.600 C 287.600 156.040,287.420 156.400,287.200 156.400 C 286.980 156.400,286.800 156.653,286.800 156.962 C 286.800 157.628,285.132 160.941,284.700 161.133 C 284.535 161.207,284.400 161.597,284.400 162.000 C 284.400 162.403,284.175 162.814,283.900 162.912 C 283.625 163.010,283.537 163.237,283.704 163.416 C 284.090 163.830,285.600 162.238,285.600 161.417 C 285.600 161.078,285.735 160.799,285.900 160.797 C 286.259 160.793,287.200 158.856,287.200 158.120 C 287.200 157.834,287.380 157.600,287.600 157.600 C 287.820 157.600,288.000 157.240,288.000 156.800 C 288.000 156.360,288.138 156.000,288.306 156.000 C 288.474 156.000,288.918 155.325,289.294 154.500 C 290.157 152.601,291.296 150.676,291.751 150.345 C 292.158 150.049,291.732 149.200,291.176 149.200 C 290.969 149.200,290.800 149.560,290.800 150.000 M226.800 160.395 C 226.800 160.649,227.086 161.143,227.436 161.493 C 228.018 162.075,228.061 162.050,227.936 161.196 C 227.798 160.250,226.800 159.546,226.800 160.395 M227.900 162.665 C 228.175 162.776,228.400 163.212,228.400 163.633 C 228.400 164.055,228.580 164.400,228.800 164.400 C 229.020 164.400,229.200 164.760,229.200 165.200 C 229.200 165.640,229.380 166.000,229.600 166.000 C 229.820 166.000,230.000 166.360,230.000 166.800 C 230.000 167.240,230.180 167.600,230.400 167.600 C 230.620 167.600,230.800 167.960,230.800 168.400 C 230.800 168.844,231.067 169.200,231.400 169.200 C 232.010 169.200,232.250 168.177,231.698 167.933 C 231.532 167.860,230.785 166.585,230.038 165.100 C 229.182 163.397,228.444 162.412,228.040 162.432 C 227.626 162.452,227.577 162.535,227.900 162.665 M283.600 165.400 C 283.600 165.730,283.780 166.000,284.000 166.000 C 284.220 166.000,284.400 166.320,284.400 166.712 C 284.400 167.103,284.760 167.683,285.200 168.000 C 285.640 168.317,286.000 168.820,286.000 169.117 C 286.000 169.414,286.270 169.927,286.600 170.257 C 286.930 170.587,287.200 170.681,287.200 170.466 C 287.200 169.927,285.469 166.631,285.100 166.467 C 284.935 166.393,284.800 165.988,284.800 165.567 C 284.800 165.145,284.530 164.800,284.200 164.800 C 283.870 164.800,283.600 165.070,283.600 165.400 M231.600 170.167 C 231.600 170.515,231.780 170.800,232.000 170.800 C 232.220 170.800,232.400 171.160,232.400 171.600 C 232.400 172.040,232.580 172.400,232.800 172.400 C 233.020 172.400,233.200 172.760,233.200 173.200 C 233.200 173.640,233.380 174.000,233.600 174.000 C 233.820 174.000,234.000 174.360,234.000 174.800 C 234.000 175.240,234.180 175.600,234.400 175.600 C 234.620 175.600,234.800 175.960,234.800 176.400 C 234.800 176.840,234.980 177.200,235.200 177.200 C 235.420 177.200,235.600 177.560,235.600 178.000 C 235.600 178.440,235.769 178.800,235.976 178.800 C 236.536 178.800,236.957 177.950,236.543 177.655 C 236.346 177.515,235.576 176.185,234.832 174.700 C 234.089 173.215,233.339 172.000,233.167 172.000 C 232.994 172.000,232.796 171.519,232.727 170.931 C 232.591 169.784,231.600 169.112,231.600 170.167 M286.800 171.600 C 286.800 171.820,286.980 172.000,287.200 172.000 C 287.420 172.000,287.600 172.450,287.600 173.000 C 287.600 173.550,287.780 174.000,288.000 174.000 C 288.220 174.000,288.400 174.360,288.400 174.800 C 288.400 175.240,288.580 175.600,288.800 175.600 C 289.020 175.600,289.200 175.920,289.200 176.312 C 289.200 176.703,289.560 177.283,290.000 177.600 C 290.440 177.917,290.800 178.576,290.800 179.065 C 290.800 180.109,291.416 180.621,291.843 179.930 C 292.007 179.665,291.930 179.377,291.671 179.290 C 291.412 179.204,291.200 178.788,291.200 178.367 C 291.200 177.945,291.065 177.599,290.900 177.597 C 290.541 177.593,289.600 175.656,289.600 174.920 C 289.600 174.634,289.465 174.399,289.300 174.397 C 288.941 174.393,288.000 172.456,288.000 171.720 C 288.000 171.434,287.730 171.200,287.400 171.200 C 287.070 171.200,286.800 171.380,286.800 171.600 M280.800 173.562 C 280.800 173.761,281.145 174.616,281.567 175.462 C 281.989 176.308,282.433 177.315,282.554 177.700 C 282.824 178.555,283.600 178.630,283.600 177.800 C 283.600 177.470,283.420 177.200,283.200 177.200 C 282.980 177.200,282.800 176.840,282.800 176.400 C 282.800 175.960,282.620 175.600,282.400 175.600 C 282.180 175.600,282.000 175.060,282.000 174.400 C 282.000 173.600,281.800 173.200,281.400 173.200 C 281.070 173.200,280.800 173.363,280.800 173.562 M283.200 179.400 C 283.200 179.730,283.380 180.000,283.600 180.000 C 283.820 180.000,284.000 180.345,284.000 180.767 C 284.000 181.188,284.135 181.593,284.300 181.667 C 284.724 181.855,287.200 186.799,287.200 187.456 C 287.200 187.755,287.470 188.000,287.800 188.000 C 288.130 188.000,288.400 187.730,288.400 187.400 C 288.400 187.070,288.220 186.800,288.000 186.800 C 287.780 186.800,287.600 186.440,287.600 186.000 C 287.600 185.560,287.420 185.200,287.200 185.200 C 286.980 185.200,286.800 184.840,286.800 184.400 C 286.800 183.960,286.620 183.600,286.400 183.600 C 286.180 183.600,286.000 183.240,286.000 182.800 C 286.000 182.360,285.820 182.000,285.600 182.000 C 285.380 182.000,285.200 181.640,285.200 181.200 C 285.200 180.760,285.020 180.400,284.800 180.400 C 284.580 180.400,284.400 180.040,284.400 179.600 C 284.400 179.156,284.133 178.800,283.800 178.800 C 283.470 178.800,283.200 179.070,283.200 179.400 M236.400 179.595 C 236.400 179.849,236.686 180.343,237.036 180.693 C 237.618 181.275,237.661 181.250,237.536 180.396 C 237.398 179.450,236.400 178.746,236.400 179.595 M291.600 181.400 C 291.600 181.730,291.780 182.000,292.000 182.000 C 292.220 182.000,292.400 182.360,292.400 182.800 C 292.400 183.240,292.580 183.600,292.800 183.600 C 293.020 183.600,293.200 183.960,293.200 184.400 C 293.200 184.840,293.380 185.200,293.600 185.200 C 293.820 185.200,294.000 185.560,294.000 186.000 C 294.000 186.440,294.180 186.800,294.400 186.800 C 294.620 186.800,294.800 187.160,294.800 187.600 C 294.800 188.040,294.980 188.400,295.200 188.400 C 295.420 188.400,295.600 188.760,295.600 189.200 C 295.600 189.644,295.867 190.000,296.200 190.000 C 296.809 190.000,297.051 188.978,296.500 188.733 C 296.335 188.660,295.758 187.700,295.218 186.600 C 294.678 185.500,293.913 184.122,293.518 183.538 C 293.123 182.954,292.800 182.099,292.800 181.638 C 292.800 181.160,292.542 180.800,292.200 180.800 C 291.870 180.800,291.600 181.070,291.600 181.400 M237.200 182.112 C 237.200 182.393,237.560 182.883,238.000 183.200 C 238.440 183.517,238.800 184.097,238.800 184.488 C 238.800 184.880,238.980 185.200,239.200 185.200 C 239.420 185.200,239.600 185.560,239.600 186.000 C 239.600 186.440,239.780 186.800,240.000 186.800 C 240.220 186.800,240.400 187.160,240.400 187.600 C 240.400 188.040,240.580 188.400,240.800 188.400 C 241.020 188.400,241.200 188.760,241.200 189.200 C 241.200 189.644,241.467 190.000,241.800 190.000 C 242.130 190.000,242.400 189.730,242.400 189.400 C 242.400 189.070,242.241 188.800,242.047 188.800 C 241.852 188.800,241.593 188.485,241.471 188.100 C 241.349 187.715,240.968 186.905,240.625 186.300 C 240.281 185.695,239.719 184.705,239.375 184.100 C 239.032 183.495,238.651 182.685,238.529 182.300 C 238.274 181.496,237.200 181.344,237.200 182.112 M288.000 188.829 C 288.000 189.174,289.695 192.505,290.021 192.800 C 290.142 192.910,290.556 193.675,290.940 194.500 C 291.649 196.025,292.400 196.488,292.400 195.400 C 292.400 195.070,292.220 194.800,292.000 194.800 C 291.780 194.800,291.600 194.440,291.600 194.000 C 291.600 193.560,291.420 193.200,291.200 193.200 C 290.980 193.200,290.800 192.840,290.800 192.400 C 290.800 191.960,290.665 191.599,290.500 191.597 C 290.158 191.593,289.200 189.671,289.200 188.987 C 289.200 188.737,288.930 188.533,288.600 188.533 C 288.270 188.533,288.000 188.666,288.000 188.829 M242.000 191.224 C 242.000 191.677,242.180 191.936,242.400 191.800 C 242.620 191.664,242.800 191.923,242.800 192.376 C 242.800 192.829,242.980 193.200,243.200 193.200 C 243.420 193.200,243.600 193.560,243.600 194.000 C 243.600 194.440,243.780 194.800,244.000 194.800 C 244.220 194.800,244.400 195.160,244.400 195.600 C 244.400 196.040,244.580 196.400,244.800 196.400 C 245.020 196.400,245.200 196.760,245.200 197.200 C 245.200 197.640,245.380 198.000,245.600 198.000 C 245.820 198.000,246.000 198.360,246.000 198.800 C 246.000 199.240,246.180 199.600,246.400 199.600 C 246.620 199.600,246.800 200.050,246.800 200.600 C 246.800 201.150,246.980 201.600,247.200 201.600 C 247.420 201.600,247.600 202.010,247.600 202.512 C 247.600 203.013,247.960 203.683,248.400 204.000 C 248.840 204.317,249.200 204.897,249.200 205.288 C 249.200 205.680,249.380 206.000,249.600 206.000 C 249.820 206.000,250.000 206.360,250.000 206.800 C 250.000 207.240,250.180 207.600,250.400 207.600 C 250.620 207.600,250.800 207.960,250.800 208.400 C 250.800 208.840,250.980 209.200,251.200 209.200 C 251.420 209.200,251.600 209.650,251.600 210.200 C 251.600 210.750,251.780 211.200,252.000 211.200 C 252.220 211.200,252.400 211.650,252.400 212.200 C 252.400 212.750,252.580 213.200,252.800 213.200 C 253.020 213.200,253.200 213.481,253.200 213.824 C 253.200 214.167,253.380 214.336,253.600 214.200 C 253.827 214.060,254.000 214.396,254.000 214.976 C 254.000 215.539,254.180 216.000,254.400 216.000 C 254.620 216.000,254.800 216.270,254.800 216.600 C 254.800 216.930,254.980 217.200,255.200 217.200 C 255.462 217.200,255.600 225.333,255.600 240.800 L 255.600 264.400 280.000 264.400 L 304.400 264.400 304.400 242.000 C 304.400 222.356,304.326 219.600,303.800 219.600 C 303.470 219.600,303.200 219.870,303.200 220.200 C 303.200 220.530,303.382 220.800,303.604 220.800 C 303.871 220.800,303.972 227.975,303.904 242.100 L 303.800 263.400 280.400 263.400 L 257.000 263.400 256.800 240.713 C 256.616 219.857,256.543 217.960,255.900 217.208 C 255.515 216.759,255.200 216.230,255.200 216.033 C 255.200 215.518,253.456 212.225,253.100 212.067 C 252.935 211.993,252.800 211.498,252.800 210.967 C 252.800 210.435,252.620 210.000,252.400 210.000 C 252.180 210.000,252.000 209.713,252.000 209.362 C 252.000 209.011,251.679 208.246,251.286 207.662 C 250.893 207.078,250.314 206.060,250.000 205.400 C 249.686 204.740,249.107 203.722,248.714 203.138 C 248.321 202.554,248.000 201.710,248.000 201.262 C 248.000 200.814,247.820 200.336,247.600 200.200 C 247.380 200.064,247.200 199.603,247.200 199.176 C 247.200 198.749,247.065 198.399,246.900 198.397 C 246.735 198.395,246.399 197.990,246.154 197.497 C 245.909 197.004,245.160 195.520,244.490 194.200 C 243.819 192.880,243.170 191.485,243.048 191.100 C 242.740 190.132,242.000 190.219,242.000 191.224 M296.400 190.967 C 296.400 191.315,296.580 191.600,296.800 191.600 C 297.020 191.600,297.200 191.960,297.200 192.400 C 297.200 192.840,297.380 193.200,297.600 193.200 C 297.820 193.200,298.000 193.560,298.000 194.000 C 298.000 194.440,298.180 194.800,298.400 194.800 C 298.620 194.800,298.800 195.160,298.800 195.600 C 298.800 196.040,298.980 196.400,299.200 196.400 C 299.420 196.400,299.600 196.760,299.600 197.200 C 299.600 197.640,299.780 198.000,300.000 198.000 C 300.220 198.000,300.400 198.360,300.400 198.800 C 300.400 199.240,300.580 199.600,300.800 199.600 C 301.020 199.600,301.200 199.960,301.200 200.400 C 301.200 200.840,301.380 201.200,301.600 201.200 C 301.820 201.200,302.000 201.560,302.000 202.000 C 302.000 202.440,302.180 202.800,302.400 202.800 C 302.620 202.800,302.800 203.160,302.800 203.600 C 302.800 204.040,302.980 204.400,303.200 204.400 C 303.420 204.400,303.600 204.900,303.600 205.512 C 303.600 206.165,303.930 206.861,304.400 207.200 C 304.840 207.517,305.200 208.097,305.200 208.488 C 305.200 208.880,305.380 209.200,305.600 209.200 C 305.820 209.200,306.000 209.560,306.000 210.000 C 306.000 210.444,306.267 210.800,306.600 210.800 C 306.930 210.800,307.200 210.980,307.200 211.200 C 307.200 211.420,307.470 211.600,307.800 211.600 C 308.176 211.600,308.400 211.220,308.400 210.583 C 308.400 210.024,308.760 209.180,309.200 208.708 C 309.640 208.236,310.000 207.613,310.000 207.325 C 310.000 207.036,310.180 206.800,310.400 206.800 C 310.620 206.800,310.800 206.440,310.800 206.000 C 310.800 205.560,310.980 205.200,311.200 205.200 C 311.420 205.200,311.600 204.840,311.600 204.400 C 311.600 203.960,311.780 203.600,312.000 203.600 C 312.220 203.600,312.400 203.240,312.400 202.800 C 312.400 202.360,312.580 202.000,312.800 202.000 C 313.020 202.000,313.200 201.550,313.200 201.000 C 313.200 200.450,313.380 200.000,313.600 200.000 C 313.820 200.000,314.000 199.640,314.000 199.200 C 314.000 198.760,314.180 198.400,314.400 198.400 C 314.620 198.400,314.800 198.130,314.800 197.800 C 314.800 197.470,314.980 197.200,315.200 197.200 C 315.420 197.200,315.600 196.840,315.600 196.400 C 315.600 195.960,315.780 195.600,316.000 195.600 C 316.220 195.600,316.400 195.240,316.400 194.800 C 316.400 194.360,316.580 194.000,316.800 194.000 C 317.020 194.000,317.200 193.640,317.200 193.200 C 317.200 192.760,317.380 192.400,317.600 192.400 C 317.820 192.400,318.000 192.130,318.000 191.800 C 318.000 190.462,317.189 191.365,315.753 194.300 C 314.918 196.005,314.138 197.490,314.018 197.600 C 313.546 198.033,312.800 199.622,312.800 200.195 C 312.800 200.528,312.620 200.800,312.400 200.800 C 312.180 200.800,312.000 201.045,312.000 201.344 C 312.000 201.886,309.616 206.820,309.170 207.200 C 309.041 207.310,308.681 207.985,308.370 208.700 C 308.059 209.415,307.714 209.997,307.602 209.994 C 306.887 209.972,305.915 208.504,304.163 204.800 C 303.591 203.590,302.780 201.908,302.361 201.062 C 301.943 200.216,301.600 199.271,301.600 198.962 C 301.600 198.653,301.420 198.400,301.200 198.400 C 300.980 198.400,300.796 198.175,300.791 197.900 C 300.786 197.625,300.430 196.950,300.000 196.400 C 299.570 195.850,299.214 195.158,299.209 194.862 C 299.204 194.566,298.861 193.846,298.447 193.262 C 298.032 192.678,297.627 191.855,297.547 191.433 C 297.366 190.487,296.400 190.094,296.400 190.967 M292.000 196.729 C 292.000 197.136,293.258 199.829,294.275 201.600 C 294.591 202.150,294.949 202.915,295.071 203.300 C 295.193 203.685,295.452 204.000,295.647 204.000 C 295.841 204.000,296.000 204.360,296.000 204.800 C 296.000 205.240,296.180 205.600,296.400 205.600 C 296.620 205.600,296.800 205.945,296.800 206.367 C 296.800 206.789,297.455 208.364,298.256 209.867 C 300.448 213.980,302.307 217.715,302.555 218.500 C 302.824 219.355,303.600 219.430,303.600 218.600 C 303.600 218.270,303.420 218.000,303.200 218.000 C 302.980 218.000,302.800 217.640,302.800 217.200 C 302.800 216.760,302.620 216.400,302.400 216.400 C 302.180 216.400,302.000 216.040,302.000 215.600 C 302.000 215.160,301.820 214.800,301.600 214.800 C 301.380 214.800,301.200 214.440,301.200 214.000 C 301.200 213.560,301.020 213.200,300.800 213.200 C 300.580 213.200,300.400 212.840,300.400 212.400 C 300.400 211.960,300.220 211.600,300.000 211.600 C 299.780 211.600,299.600 211.240,299.600 210.800 C 299.600 210.360,299.420 210.000,299.200 210.000 C 298.980 210.000,298.800 209.640,298.800 209.200 C 298.800 208.760,298.620 208.400,298.400 208.400 C 298.180 208.400,298.000 208.040,298.000 207.600 C 298.000 207.160,297.820 206.800,297.600 206.800 C 297.380 206.800,297.200 206.260,297.200 205.600 C 297.200 204.940,297.020 204.400,296.800 204.400 C 296.580 204.400,296.400 204.080,296.400 203.688 C 296.400 203.297,296.040 202.717,295.600 202.400 C 295.160 202.083,294.800 201.503,294.800 201.112 C 294.800 200.720,294.620 200.400,294.400 200.400 C 294.180 200.400,294.000 200.040,294.000 199.600 C 294.000 199.160,293.832 198.800,293.627 198.800 C 293.421 198.800,293.196 198.319,293.127 197.731 C 293.009 196.741,292.000 195.843,292.000 196.729 " stroke="none" fill="#646464" fill-rule="evenodd"></path><path id="path3" d="M119.406 121.990 C 119.083 122.513,120.004 122.956,120.462 122.498 C 120.718 122.242,120.641 122.024,120.240 121.871 C 119.902 121.741,119.527 121.795,119.406 121.990 M174.202 125.598 C 173.803 126.039,173.662 126.400,173.889 126.400 C 174.392 126.400,175.390 125.257,175.121 124.988 C 175.015 124.882,174.602 125.156,174.202 125.598 M168.178 126.835 C 167.766 127.502,168.693 128.267,169.245 127.715 C 169.707 127.253,169.418 126.400,168.800 126.400 C 168.606 126.400,168.326 126.596,168.178 126.835 M179.200 129.997 C 179.200 130.218,179.380 130.400,179.600 130.400 C 179.820 130.400,180.000 130.670,180.000 131.000 C 180.000 131.330,180.180 131.600,180.400 131.600 C 181.095 131.600,180.833 130.613,180.000 130.093 C 179.526 129.797,179.200 129.757,179.200 129.997 M188.800 139.800 C 188.800 140.130,188.980 140.400,189.200 140.400 C 189.420 140.400,189.600 140.130,189.600 139.800 C 189.600 139.470,189.420 139.200,189.200 139.200 C 188.980 139.200,188.800 139.470,188.800 139.800 M119.200 143.776 C 119.200 144.339,119.380 144.800,119.600 144.800 C 119.820 144.800,120.000 144.451,120.000 144.024 C 120.000 143.597,119.820 143.136,119.600 143.000 C 119.373 142.860,119.200 143.196,119.200 143.776 M192.500 192.665 C 191.804 192.946,191.873 193.600,192.600 193.600 C 192.930 193.600,193.200 193.330,193.200 193.000 C 193.200 192.670,193.155 192.414,193.100 192.432 C 193.045 192.449,192.775 192.554,192.500 192.665 M193.600 194.213 C 193.600 194.850,194.663 195.471,195.065 195.068 C 195.297 194.837,194.255 193.600,193.829 193.600 C 193.703 193.600,193.600 193.876,193.600 194.213 M124.875 196.825 C 124.971 197.114,125.286 197.429,125.575 197.525 C 125.875 197.625,126.025 197.475,125.925 197.175 C 125.829 196.886,125.514 196.571,125.225 196.475 C 124.925 196.375,124.775 196.525,124.875 196.825 M119.600 198.987 C 119.600 199.344,119.835 199.485,120.198 199.346 C 120.526 199.219,120.696 198.955,120.574 198.758 C 120.225 198.193,119.600 198.340,119.600 198.987 M187.892 199.630 C 188.124 200.516,188.800 200.674,188.800 199.843 C 188.800 199.536,188.550 199.190,188.245 199.073 C 187.856 198.923,187.751 199.090,187.892 199.630 M186.400 201.000 C 186.400 201.330,186.580 201.600,186.800 201.600 C 187.020 201.600,187.200 201.330,187.200 201.000 C 187.200 200.670,187.020 200.400,186.800 200.400 C 186.580 200.400,186.400 200.670,186.400 201.000 M179.584 205.230 C 179.176 205.992,179.209 206.023,179.981 205.610 C 180.444 205.363,180.717 204.989,180.588 204.780 C 180.246 204.228,180.080 204.303,179.584 205.230 M180.629 209.429 C 180.205 209.738,179.972 210.105,180.110 210.243 C 180.249 210.382,180.662 210.195,181.029 209.829 C 181.891 208.966,181.625 208.700,180.629 209.429 M154.000 209.953 C 154.000 210.322,155.648 210.885,155.923 210.611 C 156.009 210.524,155.961 210.261,155.816 210.027 C 155.499 209.513,154.000 209.453,154.000 209.953 M128.000 214.000 C 128.000 214.220,128.371 214.400,128.824 214.400 C 129.277 214.400,129.536 214.220,129.400 214.000 C 129.264 213.780,128.893 213.600,128.576 213.600 C 128.259 213.600,128.000 213.780,128.000 214.000 M171.800 222.000 C 171.664 222.220,171.923 222.400,172.376 222.400 C 172.829 222.400,173.200 222.220,173.200 222.000 C 173.200 221.780,172.941 221.600,172.624 221.600 C 172.307 221.600,171.936 221.780,171.800 222.000 M180.000 222.576 C 180.000 223.113,180.192 223.671,180.427 223.816 C 181.044 224.198,181.157 223.942,180.918 222.700 C 180.656 221.338,180.000 221.249,180.000 222.576 M139.878 223.977 C 139.996 224.430,140.266 224.800,140.476 224.800 C 141.007 224.800,140.707 223.502,140.131 223.310 C 139.833 223.211,139.741 223.454,139.878 223.977 M138.400 224.600 C 138.400 224.930,138.559 225.200,138.753 225.200 C 138.948 225.200,139.237 225.605,139.396 226.100 C 139.667 226.944,139.697 226.951,139.888 226.215 C 140.000 225.784,139.891 225.364,139.646 225.282 C 139.401 225.200,139.200 224.878,139.200 224.567 C 139.200 224.255,139.020 224.000,138.800 224.000 C 138.580 224.000,138.400 224.270,138.400 224.600 M181.692 226.475 C 181.779 226.736,182.064 227.021,182.325 227.108 C 182.618 227.206,182.707 227.023,182.557 226.633 C 182.278 225.906,181.452 225.755,181.692 226.475 M174.667 228.267 C 173.986 228.947,174.431 230.000,175.400 230.000 C 176.465 230.000,176.714 229.274,175.920 228.480 C 175.376 227.936,175.052 227.881,174.667 228.267 M183.855 228.600 C 183.982 228.930,184.246 229.200,184.443 229.200 C 184.639 229.200,184.800 228.930,184.800 228.600 C 184.800 228.270,184.536 228.000,184.213 228.000 C 183.855 228.000,183.715 228.235,183.855 228.600 M195.692 253.675 C 195.939 254.417,196.800 254.540,196.800 253.833 C 196.800 253.485,196.515 253.200,196.167 253.200 C 195.818 253.200,195.605 253.414,195.692 253.675 " stroke="none" fill="#fb7404" fill-rule="evenodd"></path><path id="path4" d="M61.200 191.958 L 61.200 264.316 62.700 264.458 C 63.525 264.536,74.685 264.552,87.500 264.494 L 110.800 264.387 110.800 191.994 L 110.800 119.600 109.400 119.600 C 107.850 119.600,107.709 119.815,108.606 120.807 C 109.590 121.894,109.508 261.972,108.523 262.700 C 107.492 263.463,63.484 263.424,62.850 262.660 C 62.305 262.004,62.397 121.414,62.943 120.300 C 63.225 119.725,63.100 119.600,62.243 119.600 L 61.200 119.600 61.200 191.958 M116.400 134.430 L 116.400 149.260 118.100 149.193 C 119.035 149.156,127.135 149.143,136.100 149.163 L 152.400 149.200 152.400 170.396 L 152.400 191.592 134.500 191.696 L 116.600 191.800 116.495 206.500 L 116.390 221.200 117.595 221.200 C 118.888 221.200,119.099 220.859,118.300 220.060 C 117.568 219.329,117.399 194.827,118.120 193.842 C 118.586 193.204,119.953 193.151,135.506 193.165 C 144.790 193.173,152.660 193.075,152.993 192.947 C 153.525 192.743,153.600 190.018,153.600 170.801 L 153.600 148.887 152.556 148.625 C 151.981 148.480,144.196 148.365,135.256 148.367 C 125.943 148.370,118.744 148.214,118.400 148.001 C 117.742 147.593,117.485 125.450,118.092 121.500 C 118.375 119.665,118.351 119.600,117.392 119.600 L 116.400 119.600 116.400 134.430 M171.200 119.986 C 171.200 120.198,171.515 120.545,171.900 120.756 C 172.285 120.968,173.680 122.249,175.000 123.604 C 176.320 124.959,177.940 126.581,178.600 127.210 C 181.968 130.417,199.780 148.422,200.035 148.877 C 200.451 149.620,200.475 151.076,200.436 172.457 L 200.400 191.513 195.823 196.257 C 193.306 198.866,191.068 201.147,190.850 201.327 C 190.006 202.023,186.969 205.062,186.367 205.811 C 186.019 206.245,185.209 207.070,184.567 207.645 C 183.925 208.220,182.706 209.438,181.859 210.353 C 179.687 212.696,179.102 212.941,178.043 211.954 C 177.269 211.233,176.801 211.165,173.886 211.348 C 167.226 211.767,163.447 212.260,163.290 212.731 C 163.203 212.992,162.947 213.091,162.722 212.952 C 161.998 212.504,157.177 212.793,154.246 213.459 C 152.681 213.815,149.960 214.258,148.200 214.445 C 146.440 214.632,143.920 214.967,142.600 215.191 C 141.280 215.415,138.951 215.687,137.425 215.794 C 135.898 215.902,134.467 216.173,134.245 216.395 C 134.022 216.618,133.426 216.800,132.920 216.800 C 131.862 216.800,131.819 216.921,132.491 217.997 C 132.866 218.598,132.875 219.067,132.526 219.991 C 132.242 220.742,132.219 221.200,132.463 221.200 C 133.071 221.200,134.000 222.271,134.000 222.971 C 134.000 223.317,134.180 223.600,134.400 223.600 C 134.620 223.600,134.800 223.960,134.800 224.400 C 134.800 224.840,134.980 225.200,135.200 225.200 C 135.420 225.200,135.600 225.560,135.600 226.000 C 135.600 226.440,135.780 226.800,136.000 226.800 C 136.220 226.800,136.400 227.340,136.400 228.000 C 136.400 228.660,136.535 229.201,136.700 229.203 C 137.059 229.207,138.000 231.144,138.000 231.880 C 138.000 232.166,138.135 232.401,138.300 232.403 C 138.659 232.407,139.600 234.344,139.600 235.080 C 139.600 235.366,139.780 235.600,140.000 235.600 C 140.220 235.600,140.400 235.878,140.400 236.217 C 140.400 236.556,140.760 237.220,141.200 237.692 C 141.640 238.164,142.000 238.956,142.000 239.452 C 142.000 239.947,142.180 240.464,142.400 240.600 C 142.620 240.736,142.800 241.163,142.800 241.548 C 142.800 241.934,143.160 242.636,143.600 243.108 C 144.040 243.580,144.400 244.244,144.400 244.583 C 144.400 244.922,144.580 245.200,144.800 245.200 C 145.020 245.200,145.200 245.434,145.200 245.720 C 145.200 246.456,146.141 248.393,146.500 248.397 C 146.665 248.399,146.800 248.940,146.800 249.600 C 146.800 250.260,146.980 250.800,147.200 250.800 C 147.420 250.800,147.600 251.160,147.600 251.600 C 147.600 252.040,147.780 252.400,148.000 252.400 C 148.220 252.400,148.400 252.760,148.400 253.200 C 148.400 253.640,148.580 254.000,148.800 254.000 C 149.020 254.000,149.200 254.360,149.200 254.800 C 149.200 255.240,149.380 255.600,149.600 255.600 C 149.820 255.600,150.000 255.960,150.000 256.400 C 150.000 256.840,150.135 257.201,150.300 257.203 C 150.747 257.208,151.600 259.226,151.600 260.280 C 151.600 260.786,151.780 261.200,152.000 261.200 C 152.220 261.200,152.400 261.469,152.400 261.797 C 152.400 262.125,152.792 262.845,153.272 263.397 L 154.144 264.400 180.249 264.400 C 207.940 264.400,207.451 264.437,206.025 262.436 C 205.571 261.798,205.200 261.079,205.200 260.838 C 205.200 260.597,205.020 260.400,204.800 260.400 C 204.580 260.400,204.400 260.040,204.400 259.600 C 204.400 259.160,204.220 258.800,204.000 258.800 C 203.780 258.800,203.600 258.300,203.600 257.688 C 203.600 257.035,203.270 256.339,202.800 256.000 C 202.360 255.683,202.000 255.103,202.000 254.712 C 202.000 254.320,201.820 254.000,201.600 254.000 C 201.380 254.000,201.200 253.680,201.200 253.288 C 201.200 252.897,200.840 252.317,200.400 252.000 C 199.960 251.683,199.600 251.103,199.600 250.712 C 199.600 250.320,199.420 250.000,199.200 250.000 C 198.980 250.000,198.800 249.640,198.800 249.200 C 198.800 248.760,198.620 248.400,198.400 248.400 C 198.180 248.400,198.000 248.040,198.000 247.600 C 198.000 247.160,197.820 246.800,197.600 246.800 C 197.380 246.800,197.200 246.440,197.200 246.000 C 197.200 245.560,197.020 245.200,196.800 245.200 C 196.580 245.200,196.400 244.840,196.400 244.400 C 196.400 243.960,196.220 243.600,196.000 243.600 C 195.780 243.600,195.600 243.280,195.600 242.888 C 195.600 242.497,195.240 241.917,194.800 241.600 C 194.360 241.283,194.000 240.703,194.000 240.312 C 194.000 239.920,193.820 239.600,193.600 239.600 C 193.380 239.600,193.200 239.100,193.200 238.488 C 193.200 237.835,192.870 237.139,192.400 236.800 C 191.960 236.483,191.600 235.903,191.600 235.512 C 191.600 235.120,191.420 234.800,191.200 234.800 C 190.980 234.800,190.800 234.440,190.800 234.000 C 190.800 233.560,190.620 233.200,190.400 233.200 C 190.180 233.200,190.000 232.964,190.000 232.675 C 190.000 232.387,189.640 231.764,189.200 231.292 C 188.760 230.820,188.400 229.976,188.400 229.417 C 188.400 228.858,188.220 228.400,188.000 228.400 C 187.780 228.400,187.600 228.164,187.600 227.875 C 187.600 227.587,187.285 226.993,186.900 226.555 C 185.953 225.479,185.200 224.122,185.200 223.494 C 185.200 223.209,184.840 222.717,184.400 222.400 C 183.930 222.061,183.600 221.365,183.600 220.712 C 183.600 220.100,183.420 219.600,183.200 219.600 C 182.980 219.600,182.800 219.240,182.800 218.800 C 182.800 218.360,182.620 218.000,182.400 218.000 C 182.180 218.000,182.000 217.764,182.000 217.475 C 182.000 217.187,181.640 216.564,181.200 216.092 C 180.027 214.833,180.167 213.499,181.535 212.893 C 182.159 212.617,182.924 211.898,183.235 211.295 C 183.948 209.913,185.100 208.754,186.456 208.056 C 187.037 207.757,187.757 207.037,188.056 206.456 C 188.749 205.112,189.912 203.949,191.256 203.256 C 191.837 202.957,192.557 202.238,192.856 201.659 C 193.531 200.353,195.819 198.000,196.415 198.000 C 196.986 198.000,198.000 196.986,198.000 196.415 C 198.000 195.851,200.400 193.439,201.309 193.090 C 201.952 192.843,202.000 191.277,202.000 170.384 C 202.000 147.064,201.982 146.800,200.410 146.800 C 199.836 146.800,198.000 144.972,198.000 144.400 C 198.000 144.160,197.558 143.522,197.018 142.982 C 196.478 142.442,195.840 142.000,195.600 142.000 C 195.036 142.000,193.200 140.168,193.200 139.605 C 193.200 139.038,190.554 136.400,189.985 136.400 C 189.414 136.400,188.400 135.386,188.400 134.815 C 188.400 134.572,187.776 133.749,187.013 132.987 C 186.251 132.224,185.428 131.600,185.185 131.600 C 184.612 131.600,183.600 130.585,183.600 130.010 C 183.600 129.489,181.795 127.600,181.296 127.600 C 180.744 127.600,178.241 125.088,177.654 123.944 C 177.356 123.363,176.637 122.643,176.056 122.344 C 175.475 122.045,174.523 121.305,173.940 120.700 C 172.917 119.639,171.200 119.192,171.200 119.986 M206.800 121.400 C 206.800 121.730,206.980 122.000,207.200 122.000 C 207.420 122.000,207.600 121.730,207.600 121.400 C 207.600 121.070,207.420 120.800,207.200 120.800 C 206.980 120.800,206.800 121.070,206.800 121.400 M255.600 121.429 C 255.600 121.853,256.836 122.897,257.067 122.667 C 257.192 122.541,257.017 122.160,256.676 121.819 C 256.041 121.184,255.600 121.024,255.600 121.429 M304.896 122.795 C 304.144 123.998,304.302 124.256,305.200 123.292 C 306.047 122.383,306.194 122.000,305.696 122.000 C 305.529 122.000,305.169 122.358,304.896 122.795 M257.200 124.376 C 257.200 124.829,257.380 125.200,257.600 125.200 C 257.820 125.200,258.000 124.941,258.000 124.624 C 258.000 124.307,257.820 123.936,257.600 123.800 C 257.380 123.664,257.200 123.923,257.200 124.376 M351.600 125.400 C 351.600 125.730,351.420 126.000,351.200 126.000 C 350.980 126.000,350.800 126.360,350.800 126.800 C 350.800 127.240,350.620 127.600,350.400 127.600 C 350.180 127.600,350.000 127.780,350.000 128.000 C 350.000 128.879,350.698 128.313,351.526 126.762 C 352.524 124.893,352.546 124.800,352.000 124.800 C 351.780 124.800,351.600 125.070,351.600 125.400 M210.000 127.829 C 210.000 128.253,211.236 129.297,211.467 129.067 C 211.592 128.941,211.417 128.560,211.076 128.219 C 210.441 127.584,210.000 127.424,210.000 127.829 M211.600 131.000 C 211.600 131.330,211.780 131.600,212.000 131.600 C 212.220 131.600,212.400 131.330,212.400 131.000 C 212.400 130.670,212.220 130.400,212.000 130.400 C 211.780 130.400,211.600 130.670,211.600 131.000 M214.800 137.504 C 214.800 137.671,215.160 138.032,215.600 138.307 C 216.530 138.888,216.654 138.597,215.829 137.771 C 215.198 137.141,214.800 137.037,214.800 137.504 M342.800 142.767 C 342.800 143.188,342.575 143.614,342.300 143.712 C 342.025 143.810,341.937 144.037,342.104 144.216 C 342.444 144.579,343.567 143.279,343.587 142.500 C 343.594 142.225,343.420 142.000,343.200 142.000 C 342.980 142.000,342.800 142.345,342.800 142.767 M267.600 145.800 C 267.600 146.130,267.780 146.400,268.000 146.400 C 268.220 146.400,268.400 146.130,268.400 145.800 C 268.400 145.470,268.220 145.200,268.000 145.200 C 267.780 145.200,267.600 145.470,267.600 145.800 M339.296 149.195 C 338.797 149.993,338.598 151.135,339.033 150.700 C 339.162 150.572,339.264 150.317,339.262 150.133 C 339.259 149.950,339.542 149.485,339.890 149.100 C 340.239 148.715,340.359 148.400,340.158 148.400 C 339.957 148.400,339.569 148.758,339.296 149.195 M222.000 151.753 C 222.000 152.083,222.180 152.464,222.400 152.600 C 222.620 152.736,222.800 152.577,222.800 152.247 C 222.800 151.917,222.620 151.536,222.400 151.400 C 222.180 151.264,222.000 151.423,222.000 151.753 M272.400 155.400 C 272.400 155.730,272.580 156.000,272.800 156.000 C 273.020 156.000,273.200 155.730,273.200 155.400 C 273.200 155.070,273.020 154.800,272.800 154.800 C 272.580 154.800,272.400 155.070,272.400 155.400 M226.813 161.700 C 226.833 162.479,227.956 163.779,228.296 163.416 C 228.463 163.237,228.375 163.010,228.100 162.912 C 227.825 162.814,227.600 162.388,227.600 161.967 C 227.600 161.545,227.420 161.200,227.200 161.200 C 226.980 161.200,226.806 161.425,226.813 161.700 M276.400 163.400 C 276.400 163.730,276.580 164.000,276.800 164.000 C 277.020 164.000,277.200 163.730,277.200 163.400 C 277.200 163.070,277.020 162.800,276.800 162.800 C 276.580 162.800,276.400 163.070,276.400 163.400 M282.978 164.035 C 282.831 164.274,282.910 164.670,283.155 164.915 C 283.482 165.242,283.600 165.126,283.600 164.480 C 283.600 163.514,283.392 163.365,282.978 164.035 M277.200 165.176 C 277.200 165.629,277.380 166.000,277.600 166.000 C 277.820 166.000,278.000 165.741,278.000 165.424 C 278.000 165.107,277.820 164.736,277.600 164.600 C 277.380 164.464,277.200 164.723,277.200 165.176 M284.893 168.400 C 285.362 169.151,286.000 169.480,286.000 168.971 C 286.000 168.673,284.925 167.600,284.625 167.600 C 284.498 167.600,284.618 167.960,284.893 168.400 M329.700 168.198 C 329.131 168.845,329.061 169.200,329.504 169.200 C 329.671 169.200,330.032 168.840,330.307 168.400 C 330.878 167.487,330.451 167.345,329.700 168.198 M231.600 171.338 C 231.600 171.634,231.960 172.202,232.400 172.600 C 232.854 173.011,233.200 173.124,233.200 172.862 C 233.200 172.608,233.020 172.400,232.800 172.400 C 232.580 172.400,232.400 172.040,232.400 171.600 C 232.400 171.160,232.220 170.800,232.000 170.800 C 231.780 170.800,231.600 171.042,231.600 171.338 M286.800 172.600 C 286.800 172.930,286.980 173.200,287.200 173.200 C 287.420 173.200,287.600 172.930,287.600 172.600 C 287.600 172.270,287.420 172.000,287.200 172.000 C 286.980 172.000,286.800 172.270,286.800 172.600 M327.300 173.083 C 326.694 174.387,326.661 174.933,327.207 174.596 C 327.430 174.458,327.509 174.176,327.381 173.970 C 327.254 173.763,327.431 173.486,327.775 173.354 C 328.119 173.222,328.400 172.864,328.400 172.557 C 328.400 171.655,327.839 171.923,327.300 173.083 M289.200 177.417 C 289.200 177.536,289.560 178.020,290.000 178.492 C 290.456 178.981,290.800 179.134,290.800 178.847 C 290.800 178.570,290.543 178.086,290.229 177.771 C 289.642 177.185,289.200 177.033,289.200 177.417 M236.400 180.976 C 236.400 181.293,236.580 181.664,236.800 181.800 C 237.020 181.936,237.200 181.677,237.200 181.224 C 237.200 180.771,237.020 180.400,236.800 180.400 C 236.580 180.400,236.400 180.659,236.400 180.976 M322.800 182.000 C 322.800 182.440,322.980 182.800,323.200 182.800 C 323.420 182.800,323.600 182.440,323.600 182.000 C 323.600 181.560,323.420 181.200,323.200 181.200 C 322.980 181.200,322.800 181.560,322.800 182.000 M237.693 183.600 C 238.162 184.351,238.800 184.680,238.800 184.171 C 238.800 183.873,237.725 182.800,237.425 182.800 C 237.298 182.800,237.418 183.160,237.693 183.600 M242.286 191.884 C 242.114 192.150,242.202 192.735,242.483 193.184 C 243.024 194.050,243.600 194.265,243.600 193.600 C 243.600 193.380,243.433 193.200,243.228 193.200 C 243.023 193.200,242.798 192.795,242.727 192.300 C 242.642 191.699,242.495 191.561,242.286 191.884 M296.413 192.100 C 296.433 192.879,297.556 194.179,297.896 193.816 C 298.063 193.637,297.975 193.410,297.700 193.312 C 297.425 193.214,297.200 192.788,297.200 192.367 C 297.200 191.945,297.020 191.600,296.800 191.600 C 296.580 191.600,296.406 191.825,296.413 192.100 M294.800 201.429 C 294.800 201.727,295.875 202.800,296.175 202.800 C 296.302 202.800,296.182 202.440,295.907 202.000 C 295.438 201.249,294.800 200.920,294.800 201.429 M246.800 202.200 C 246.800 202.530,246.980 202.800,247.200 202.800 C 247.420 202.800,247.600 202.530,247.600 202.200 C 247.600 201.870,247.420 201.600,247.200 201.600 C 246.980 201.600,246.800 201.870,246.800 202.200 M297.200 205.976 C 297.200 206.429,297.380 206.800,297.600 206.800 C 297.820 206.800,298.000 206.541,298.000 206.224 C 298.000 205.907,297.820 205.536,297.600 205.400 C 297.380 205.264,297.200 205.523,297.200 205.976 M306.000 211.104 C 306.000 211.745,307.681 212.479,308.127 212.033 C 308.438 211.722,308.368 211.600,307.880 211.600 C 307.506 211.600,307.200 211.420,307.200 211.200 C 307.200 210.980,306.930 210.800,306.600 210.800 C 306.270 210.800,306.000 210.937,306.000 211.104 M251.600 211.800 C 251.600 212.130,251.780 212.400,252.000 212.400 C 252.220 212.400,252.400 212.130,252.400 211.800 C 252.400 211.470,252.220 211.200,252.000 211.200 C 251.780 211.200,251.600 211.470,251.600 211.800 M177.200 213.005 C 177.200 214.100,175.628 216.400,174.880 216.400 C 174.672 216.400,173.755 217.210,172.843 218.200 C 171.893 219.230,170.802 220.017,170.292 220.040 C 169.755 220.064,170.016 220.225,170.948 220.444 C 172.607 220.834,173.719 220.118,176.783 216.689 C 178.342 214.944,179.364 215.555,181.195 219.327 C 181.962 220.907,183.267 223.343,184.095 224.741 C 184.923 226.138,185.600 227.421,185.600 227.592 C 185.600 227.762,185.858 228.117,186.174 228.379 C 186.490 228.641,186.863 229.374,187.002 230.008 C 187.141 230.642,187.963 232.256,188.828 233.594 C 189.692 234.932,190.400 236.263,190.400 236.552 C 190.400 236.840,190.760 237.402,191.200 237.800 C 191.640 238.198,192.000 238.751,192.000 239.028 C 192.000 239.603,194.929 245.264,196.053 246.862 C 196.464 247.446,196.800 248.175,196.800 248.482 C 196.800 248.789,196.963 249.211,197.162 249.420 C 197.362 249.629,197.902 250.475,198.362 251.300 C 198.823 252.125,199.543 253.405,199.962 254.145 C 200.382 254.885,200.967 255.920,201.262 256.445 C 201.558 256.970,201.890 257.490,202.001 257.600 C 202.325 257.924,204.400 262.561,204.400 262.963 C 204.400 263.574,154.694 263.014,154.378 262.400 C 154.208 262.070,153.592 260.720,153.009 259.400 C 152.426 258.080,151.752 256.640,151.512 256.200 C 151.272 255.760,150.923 255.085,150.738 254.700 C 150.552 254.315,150.220 253.640,150.000 253.200 C 149.296 251.791,148.944 251.040,148.127 249.200 C 145.732 243.803,144.167 240.530,143.712 239.969 C 143.430 239.621,143.200 239.136,143.200 238.890 C 143.200 238.644,142.515 237.128,141.678 235.522 C 140.840 233.915,139.969 232.240,139.741 231.800 C 139.513 231.360,138.945 230.141,138.480 229.091 C 137.104 225.986,135.944 223.447,135.566 222.716 C 135.372 222.340,135.321 221.749,135.454 221.404 C 135.597 221.032,135.350 220.477,134.847 220.041 C 132.917 218.367,134.081 217.200,137.680 217.200 C 139.227 217.200,140.400 217.027,140.400 216.800 C 140.400 216.571,141.600 216.400,143.200 216.400 C 144.800 216.400,146.000 216.229,146.000 216.000 C 146.000 215.771,147.200 215.600,148.800 215.600 C 150.400 215.600,151.600 215.429,151.600 215.200 C 151.600 214.971,152.800 214.800,154.400 214.800 C 156.000 214.800,157.200 214.629,157.200 214.400 C 157.200 214.172,158.392 214.000,159.976 214.000 C 161.503 214.000,162.864 213.820,163.000 213.600 C 163.138 213.377,164.996 213.200,167.200 213.200 C 169.404 213.200,171.262 213.023,171.400 212.800 C 171.830 212.104,177.200 212.294,177.200 213.005 M253.378 214.435 C 253.231 214.674,253.310 215.070,253.555 215.315 C 253.882 215.642,254.000 215.526,254.000 214.880 C 254.000 213.914,253.792 213.765,253.378 214.435 M302.000 216.000 C 302.000 216.220,302.180 216.400,302.400 216.400 C 302.620 216.400,302.800 216.760,302.800 217.200 C 302.800 217.640,302.980 218.000,303.200 218.000 C 303.757 218.000,303.677 217.135,303.043 216.300 C 302.452 215.521,302.000 215.391,302.000 216.000 M254.013 216.300 C 254.040 216.933,255.206 218.126,255.496 217.816 C 255.663 217.637,255.575 217.410,255.300 217.312 C 255.025 217.214,254.800 216.878,254.800 216.567 C 254.800 216.255,254.620 216.000,254.400 216.000 C 254.180 216.000,254.006 216.135,254.013 216.300 M146.700 220.298 C 148.735 220.371,152.065 220.371,154.100 220.298 C 156.135 220.225,154.470 220.166,150.400 220.166 C 146.330 220.166,144.665 220.225,146.700 220.298 M304.400 242.400 C 304.400 256.800,304.538 264.400,304.800 264.400 C 305.062 264.400,305.200 256.800,305.200 242.400 C 305.200 228.000,305.062 220.400,304.800 220.400 C 304.538 220.400,304.400 228.000,304.400 242.400 " stroke="none" fill="#f2a45c" fill-rule="evenodd"></path></g></svg>